<svg width="32" height="33" viewBox="0 0 32 33" fill="none" xmlns="http://www.w3.org/2000/svg">
<g id="carbon:map">
<path id="Vector" d="M16 24.625L9.90997 16.025C8.91315 14.8481 8.27121 13.4122 8.05892 11.8845C7.84664 10.3568 8.07273 8.80029 8.71088 7.39615C9.34902 5.99202 10.373 4.79808 11.6634 3.95339C12.9539 3.1087 14.4578 2.64802 16 2.625C18.1377 2.64613 20.18 3.51359 21.6794 5.03741C23.1789 6.56123 24.0133 8.61719 24 10.755C24.0008 12.6199 23.3659 14.4294 22.2 15.885L16 24.625ZM16 4.625C14.3918 4.64347 12.8567 5.29938 11.7318 6.44871C10.6068 7.59803 9.98397 9.14683 9.99997 10.755C10.0067 12.2228 10.5348 13.6405 11.49 14.755L16 21.145L20.63 14.625C21.5101 13.5264 21.9929 12.1626 22 10.755C22.016 9.14683 21.3931 7.59803 20.2682 6.44871C19.1432 5.29938 17.6081 4.64347 16 4.625Z" fill="black"/>
<path id="Vector_2" d="M16 11.625C17.1046 11.625 18 10.7296 18 9.625C18 8.52043 17.1046 7.625 16 7.625C14.8954 7.625 14 8.52043 14 9.625C14 10.7296 14.8954 11.625 16 11.625Z" fill="black"/>
<path id="Vector_3" d="M28 12.625H26V14.625H28V28.625H4V14.625H6V12.625H4C3.46957 12.625 2.96086 12.8357 2.58579 13.2108C2.21071 13.5859 2 14.0946 2 14.625V28.625C2 29.1554 2.21071 29.6641 2.58579 30.0392C2.96086 30.4143 3.46957 30.625 4 30.625H28C28.5304 30.625 29.0391 30.4143 29.4142 30.0392C29.7893 29.6641 30 29.1554 30 28.625V14.625C30 14.0946 29.7893 13.5859 29.4142 13.2108C29.0391 12.8357 28.5304 12.625 28 12.625Z" fill="black"/>
</g>
</svg>
