<svg width="30" height="30" viewBox="0 0 30 30" fill="none" xmlns="http://www.w3.org/2000/svg">
<path d="M20 13.75C20.3542 13.75 20.6512 13.63 20.8912 13.39C21.1312 13.15 21.2508 12.8533 21.25 12.5C21.25 12.1458 21.13 11.8492 20.89 11.61C20.65 11.3708 20.3533 11.2508 20 11.25C19.6458 11.25 19.3492 11.37 19.11 11.61C18.8708 11.85 18.7508 12.1467 18.75 12.5C18.75 12.8542 18.87 13.1513 19.11 13.3913C19.35 13.6313 19.6467 13.7508 20 13.75ZM10 11.25H16.25V8.75H10V11.25ZM5.625 26.25C4.91667 23.875 4.21875 21.5054 3.53125 19.1413C2.84375 16.7771 2.5 14.355 2.5 11.875C2.5 9.95833 3.16667 8.33333 4.5 7C5.83333 5.66667 7.45833 5 9.375 5H15.625C16.2292 4.20833 16.9637 3.59375 17.8287 3.15625C18.6937 2.71875 19.6258 2.5 20.625 2.5C21.1458 2.5 21.5887 2.6825 21.9538 3.0475C22.3188 3.4125 22.5008 3.855 22.5 4.375C22.5 4.5 22.4842 4.625 22.4525 4.75C22.4208 4.875 22.3846 4.98958 22.3438 5.09375C22.2604 5.32292 22.1825 5.5575 22.11 5.7975C22.0375 6.0375 21.98 6.28208 21.9375 6.53125L24.7812 9.375H27.5V18.0938L23.9688 19.25L21.875 26.25H15V23.75H12.5V26.25H5.625ZM7.5 23.75H10V21.25H17.5V23.75H20L21.9375 17.3125L25 16.2812V11.875H23.75L19.375 7.5C19.375 7.08333 19.4012 6.6825 19.4538 6.2975C19.5063 5.9125 19.5842 5.52167 19.6875 5.125C19.0833 5.29167 18.5521 5.57833 18.0938 5.985C17.6354 6.39167 17.3021 6.89667 17.0938 7.5H9.375C8.16667 7.5 7.13542 7.92708 6.28125 8.78125C5.42708 9.63542 5 10.6667 5 11.875C5 13.9167 5.28125 15.9117 5.84375 17.86C6.40625 19.8083 6.95833 21.7717 7.5 23.75Z" fill="black"/>
</svg>
