<?xml version="1.0" standalone="no"?>
<!DOCTYPE svg PUBLIC "-//W3C//DTD SVG 20010904//EN"
 "http://www.w3.org/TR/2001/REC-SVG-20010904/DTD/svg10.dtd">
<svg version="1.0" xmlns="http://www.w3.org/2000/svg"
 width="334.000000pt" height="175.000000pt" viewBox="0 0 334.000000 175.000000"
 preserveAspectRatio="xMidYMid meet">

<g transform="translate(0.000000,175.000000) scale(0.100000,-0.100000)"
fill="#000000" stroke="none">
<path d="M1070 1640 c-162 -22 -258 -43 -308 -69 -86 -44 -168 -132 -250 -268
l-44 -72 -31 13 c-24 9 -34 22 -42 51 -15 50 -44 72 -110 80 -200 25 -310 -63
-207 -165 27 -27 62 -46 129 -70 l93 -33 -58 -27 c-97 -47 -145 -106 -186
-230 -62 -188 -75 -479 -27 -603 37 -94 103 -154 127 -115 4 6 11 50 14 97 6
72 10 87 31 104 20 16 33 18 79 12 115 -14 125 -13 128 15 2 19 -14 44 -64
100 -82 93 -124 174 -132 252 -12 142 85 132 431 -45 159 -82 201 -99 215 -91
48 31 19 67 -208 258 -80 68 -150 129 -157 138 -10 11 -7 27 18 78 l29 63 63
-7 c518 -55 1636 -57 2070 -2 110 13 102 17 141 -62 33 -65 41 -54 -124 -190
-155 -129 -250 -221 -250 -243 0 -10 10 -23 21 -30 19 -10 34 -4 108 35 224
122 405 196 475 196 115 0 75 -190 -74 -353 -100 -110 -91 -141 34 -116 35 6
75 9 89 5 37 -9 57 -53 57 -125 0 -78 6 -91 41 -91 31 0 60 32 99 109 21 42
22 52 17 260 -4 182 -8 229 -26 295 -42 152 -105 240 -203 286 l-58 27 88 32
c178 63 221 161 101 224 -28 15 -51 18 -127 14 -109 -5 -141 -21 -158 -83 -8
-28 -18 -41 -42 -51 l-31 -13 -31 55 c-56 98 -167 232 -215 261 -61 35 -145
60 -289 86 -111 20 -162 22 -616 24 -435 3 -511 1 -630 -16z m1195 -39 c158
-24 261 -52 320 -86 46 -27 106 -99 190 -230 32 -49 59 -92 61 -94 1 -1 25 4
52 13 50 17 58 27 77 94 9 32 43 42 140 42 73 0 87 -3 111 -23 56 -48 7 -100
-142 -151 -114 -39 -155 -58 -151 -69 2 -6 32 -18 68 -27 82 -20 118 -40 157
-85 83 -93 120 -237 128 -495 l6 -185 -33 -64 c-45 -85 -59 -89 -59 -17 0 72
-20 120 -62 146 -34 21 -55 22 -153 4 l-40 -7 68 73 c92 99 140 197 141 286 1
62 -1 67 -32 95 -23 20 -43 29 -68 29 -70 0 -258 -75 -444 -178 -47 -26 -94
-51 -105 -55 -32 -13 36 53 165 161 134 112 198 170 211 194 10 19 -7 64 -51
136 l-29 48 -91 -12 c-387 -53 -1695 -53 -2082 0 -104 14 -93 21 -149 -97
l-31 -68 23 -26 c13 -14 89 -81 169 -148 136 -115 228 -202 205 -194 -6 2 -96
48 -201 101 -263 134 -376 164 -427 112 -73 -73 -33 -225 98 -373 36 -41 63
-76 61 -78 -2 -2 -24 1 -50 8 -121 30 -186 -26 -186 -163 l-1 -63 -25 30 c-45
54 -69 155 -68 285 2 247 62 454 155 534 44 37 132 76 174 76 13 0 26 4 30 10
7 12 -46 39 -160 80 -114 41 -155 70 -155 111 0 45 48 62 163 57 95 -3 117
-15 117 -63 0 -28 28 -53 77 -71 45 -16 47 -15 135 123 69 108 136 176 203
208 78 36 219 62 490 89 22 2 225 3 450 1 356 -3 429 -6 550 -24z"/>
<path d="M1370 1560 c-41 -5 -138 -14 -215 -20 -269 -22 -357 -46 -435 -116
-56 -50 -130 -151 -130 -176 0 -37 112 -67 362 -95 223 -25 1206 -25 1415 0
250 30 363 59 363 95 0 25 -76 127 -131 177 -23 20 -60 45 -83 55 -88 39 -306
66 -597 75 -400 12 -477 12 -549 5z m715 -51 c171 -11 315 -31 395 -55 44 -13
66 -28 115 -79 33 -34 68 -76 78 -93 l18 -31 -52 -15 c-156 -47 -435 -66 -959
-66 -422 0 -648 10 -836 35 -110 15 -214 40 -214 52 0 3 16 27 36 54 51 69
118 125 172 143 66 22 219 43 412 57 91 6 167 14 170 16 7 7 484 -6 665 -18z"/>
<path d="M1576 669 c-27 -22 -34 -57 -14 -77 18 -18 -329 -16 -457 3 -55 8
-103 15 -107 15 -3 0 -11 -14 -17 -30 -9 -27 -7 -32 14 -46 28 -19 98 -38 220
-61 135 -25 749 -26 885 0 120 22 200 45 224 62 17 13 17 18 6 45 -11 26 -17
30 -39 25 -123 -26 -557 -37 -533 -13 20 20 13 55 -14 77 -20 16 -41 21 -84
21 -43 0 -64 -5 -84 -21z m127 -19 c23 0 34 -29 16 -41 -18 -11 -100 -11 -118
0 -33 21 14 54 64 45 11 -2 28 -4 38 -4z m-543 -100 c203 -21 1013 -10 1125
15 11 3 4 -2 -15 -11 -195 -89 -1040 -88 -1234 2 l-31 14 30 -5 c17 -3 73 -9
125 -15z"/>
<path d="M2324 418 c31 -108 36 -137 27 -160 -11 -30 -59 -54 -133 -69 -147
-28 -854 -33 -1068 -8 -97 12 -163 37 -180 69 -10 18 -9 36 0 82 11 52 11 61
-3 75 -14 14 -24 12 -109 -18 -78 -27 -107 -32 -183 -33 -49 0 -116 4 -147 8
-49 8 -58 6 -64 -8 -13 -35 7 -66 84 -126 154 -120 296 -172 524 -191 198 -17
1223 -6 1313 14 182 40 312 106 433 221 74 71 46 112 -60 87 -103 -23 -209 -9
-347 48 -88 37 -95 38 -87 9z m-1394 -95 c-15 -59 -4 -91 42 -127 69 -52 125
-58 583 -63 575 -7 739 9 808 79 29 28 30 31 24 100 -5 63 -4 69 11 63 133
-55 235 -72 338 -56 41 7 78 11 80 8 8 -8 -91 -89 -158 -129 -68 -42 -137 -70
-248 -101 -72 -20 -103 -21 -670 -25 -716 -4 -809 2 -980 72 -90 36 -273 166
-257 182 3 3 39 0 80 -7 86 -14 177 -3 286 35 36 12 68 21 70 20 2 -2 -2 -24
-9 -51z"/>
</g>
</svg>
