<svg width="35" height="40" viewBox="0 0 35 40" fill="none" xmlns="http://www.w3.org/2000/svg">
<g clip-path="url(#clip0_535_453)">
<path d="M0 5C0 2.24219 2.24219 0 5 0H30C32.7578 0 35 2.24219 35 5V35C35 37.7578 32.7578 40 30 40H5C2.24219 40 0 37.7578 0 35V5ZM14.2969 21.7812C12.1172 20.75 10.5156 18.7031 10.1016 16.25H13.1562C13.2812 18.625 13.7578 20.4531 14.2969 21.7812ZM17.5234 22.5H17.4766C17.2891 22.2266 17.0312 21.8047 16.7656 21.2109C16.2969 20.1484 15.7969 18.5312 15.6562 16.25H19.3359C19.1953 18.5312 18.7031 20.1484 18.2266 21.2109C17.9609 21.8047 17.7031 22.2266 17.5156 22.5H17.5234ZM20.7031 21.7812C21.2344 20.4453 21.7109 18.625 21.8438 16.25H24.8984C24.4844 18.7031 22.8828 20.75 20.7031 21.7812ZM21.8438 13.75C21.7188 11.375 21.2422 9.54688 20.7031 8.21875C22.8828 9.25 24.4844 11.2969 24.8984 13.75H21.8438ZM17.4766 7.5H17.5234C17.7109 7.77344 17.9688 8.19531 18.2344 8.78906C18.7031 9.85156 19.2031 11.4688 19.3438 13.75H15.6641C15.8047 11.4688 16.2969 9.85156 16.7734 8.78906C17.0391 8.19531 17.2969 7.77344 17.4844 7.5H17.4766ZM14.2969 8.21875C13.7656 9.55469 13.2891 11.375 13.1562 13.75H10.1016C10.5156 11.2969 12.1172 9.25 14.2969 8.21875ZM27.5 15C27.5 12.3478 26.4464 9.8043 24.5711 7.92893C22.6957 6.05357 20.1522 5 17.5 5C14.8478 5 12.3043 6.05357 10.4289 7.92893C8.55357 9.8043 7.5 12.3478 7.5 15C7.5 17.6522 8.55357 20.1957 10.4289 22.0711C12.3043 23.9464 14.8478 25 17.5 25C20.1522 25 22.6957 23.9464 24.5711 22.0711C26.4464 20.1957 27.5 17.6522 27.5 15ZM8.75 30C8.0625 30 7.5 30.5625 7.5 31.25C7.5 31.9375 8.0625 32.5 8.75 32.5H26.25C26.9375 32.5 27.5 31.9375 27.5 31.25C27.5 30.5625 26.9375 30 26.25 30H8.75Z" fill="black"/>
</g>
<defs>
<clipPath id="clip0_535_453">
<rect width="35" height="40" fill="white"/>
</clipPath>
</defs>
</svg>
