<svg width="19" height="33" viewBox="0 0 19 33" fill="none" xmlns="http://www.w3.org/2000/svg">
<g id="Phone" clip-path="url(#clip0_513_69)">
<g id="Group">
<path id="Vector" d="M1.48892 33H17.3307C18.1495 33 18.8158 32.306 18.8158 31.4531V1.54688C18.8158 0.694031 18.1495 0 17.3307 0H1.48892C0.670097 0 0.00375366 0.694031 0.00375366 1.54688V31.4531C0.00375366 32.306 0.670097 33 1.48892 33ZM0.993863 1.54688C0.993863 1.41012 1.04602 1.27897 1.13886 1.18227C1.2317 1.08557 1.35762 1.03125 1.48892 1.03125H17.3307C17.462 1.03125 17.5879 1.08557 17.6807 1.18227C17.7736 1.27897 17.8257 1.41012 17.8257 1.54688V31.4531C17.8257 31.5899 17.7736 31.721 17.6807 31.8177C17.5879 31.9144 17.462 31.9688 17.3307 31.9688H1.48892C1.35762 31.9688 1.2317 31.9144 1.13886 31.8177C1.04602 31.721 0.993863 31.5899 0.993863 31.4531V1.54688Z" fill="black"/>
<path id="Vector_2" d="M2.47925 27.8438H16.3408C16.4721 27.8438 16.598 27.7894 16.6908 27.6927C16.7837 27.596 16.8358 27.4649 16.8358 27.3281V5.67188C16.8358 5.53512 16.7837 5.40397 16.6908 5.30727C16.598 5.21057 16.4721 5.15625 16.3408 5.15625H2.47925C2.34795 5.15625 2.22203 5.21057 2.12919 5.30727C2.03635 5.40397 1.98419 5.53512 1.98419 5.67188V27.3281C1.98419 27.4649 2.03635 27.596 2.12919 27.6927C2.22203 27.7894 2.34795 27.8438 2.47925 27.8438ZM2.9743 6.1875H15.8457V26.8125H2.9743V6.1875Z" fill="black"/>
<path id="Vector_3" d="M9.90509 30.9375C10.4519 30.9375 10.8952 30.4758 10.8952 29.9062C10.8952 29.3367 10.4519 28.875 9.90509 28.875C9.35827 28.875 8.91498 29.3367 8.91498 29.9062C8.91498 30.4758 9.35827 30.9375 9.90509 30.9375Z" fill="black"/>
<path id="Vector_4" d="M7.42981 4.125H11.3902C11.5215 4.125 11.6475 4.07068 11.7403 3.97398C11.8331 3.87728 11.8853 3.74613 11.8853 3.60938C11.8853 3.47262 11.8331 3.34147 11.7403 3.24477C11.6475 3.14807 11.5215 3.09375 11.3902 3.09375H7.42981C7.29851 3.09375 7.17259 3.14807 7.07975 3.24477C6.98691 3.34147 6.93475 3.47262 6.93475 3.60938C6.93475 3.74613 6.98691 3.87728 7.07975 3.97398C7.17259 4.07068 7.29851 4.125 7.42981 4.125Z" fill="black"/>
</g>
</g>
<defs>
<clipPath id="clip0_513_69">
<rect width="18.82" height="33" fill="white"/>
</clipPath>
</defs>
</svg>
