<svg width="30" height="30" viewBox="0 0 30 30" fill="none" xmlns="http://www.w3.org/2000/svg">
<path d="M19.1125 12.8625L15.6375 16.3375C15.4294 16.2822 15.2153 16.2528 15 16.25C14.337 16.25 13.7011 16.5134 13.2322 16.9822C12.7634 17.4511 12.5 18.087 12.5 18.75C12.5028 18.9653 12.5322 19.1794 12.5875 19.3875L11.6125 20.3625C11.4953 20.4787 11.4024 20.617 11.3389 20.7693C11.2754 20.9216 11.2428 21.085 11.2428 21.25C11.2428 21.415 11.2754 21.5784 11.3389 21.7307C11.4024 21.883 11.4953 22.0213 11.6125 22.1375C11.7287 22.2547 11.867 22.3477 12.0193 22.4111C12.1716 22.4746 12.335 22.5072 12.5 22.5072C12.665 22.5072 12.8284 22.4746 12.9807 22.4111C13.1331 22.3477 13.2713 22.2547 13.3875 22.1375L14.3625 21.1625C14.5706 21.2178 14.7847 21.2472 15 21.25C15.663 21.25 16.2989 20.9866 16.7678 20.5178C17.2366 20.0489 17.5 19.413 17.5 18.75C17.4972 18.5347 17.4678 18.3206 17.4125 18.1125L20.8875 14.6375C21.1229 14.4021 21.2551 14.0829 21.2551 13.75C21.2551 13.4171 21.1229 13.0979 20.8875 12.8625C20.6521 12.6271 20.3329 12.4949 20 12.4949C19.6671 12.4949 19.3479 12.6271 19.1125 12.8625ZM15 5C13.3585 5 11.733 5.32332 10.2165 5.95151C8.69989 6.57969 7.32191 7.50043 6.16117 8.66117C3.81697 11.0054 2.50001 14.1848 2.50001 17.5C2.49385 19.9757 3.22966 22.3965 4.61251 24.45C4.79816 24.7252 5.08551 24.9153 5.41136 24.9786C5.7372 25.0419 6.07485 24.9732 6.35001 24.7875C6.62517 24.6018 6.81531 24.3145 6.87861 23.9886C6.9419 23.6628 6.87316 23.3252 6.68751 23.05C5.68065 21.5444 5.10161 19.7937 5.0122 17.9846C4.92279 16.1756 5.32638 14.3763 6.17986 12.7788C7.03335 11.1813 8.30469 9.84554 9.85813 8.91423C11.4116 7.98293 13.1888 7.49101 15 7.49101C16.8112 7.49101 18.5884 7.98293 20.1419 8.91423C21.6953 9.84554 22.9667 11.1813 23.8202 12.7788C24.6736 14.3763 25.0772 16.1756 24.9878 17.9846C24.8984 19.7937 24.3194 21.5444 23.3125 23.05C23.2204 23.1862 23.156 23.3392 23.1231 23.5003C23.0902 23.6614 23.0894 23.8274 23.1208 23.9888C23.1521 24.1502 23.215 24.3038 23.3058 24.4409C23.3966 24.5779 23.5136 24.6957 23.65 24.7875C23.8569 24.9266 24.1007 25.0006 24.35 25C24.5548 25.0003 24.7565 24.9503 24.9374 24.8544C25.1183 24.7585 25.2728 24.6196 25.3875 24.45C26.7704 22.3965 27.5062 19.9757 27.5 17.5C27.5 14.1848 26.183 11.0054 23.8388 8.66117C21.4946 6.31696 18.3152 5 15 5Z" fill="black"/>
</svg>
